<?xml version="1.0" encoding="UTF-8"?><svg id="b" xmlns="http://www.w3.org/2000/svg" viewBox="0 0 397.84 277.57"><defs><style>.d{fill:none;stroke:#000;stroke-linejoin:round;stroke-width:10px;}</style></defs><g id="c"><g><line class="d" x1="5" y1="205.68" x2="392.84" y2="205.68"/><line class="d" x1="5" y1="138.78" x2="392.84" y2="138.78"/><line class="d" x1="5" y1="71.89" x2="392.84" y2="71.89"/><line class="d" x1="295.88" y1="5" x2="295.88" y2="272.57"/><line class="d" x1="198.92" y1="5" x2="198.92" y2="272.57"/><line class="d" x1="101.96" y1="5" x2="101.96" y2="272.57"/><rect class="d" x="5" y="5" width="387.84" height="267.57" rx="26.19" ry="26.19"/></g><g><rect x="20" y="20" width="66.96" height="36.89" rx="6.62" ry="6.62"/><rect x="20" y="86.89" width="66.96" height="36.89" rx="6.62" ry="6.62"/><rect x="20" y="153.78" width="66.96" height="36.89" rx="6.62" ry="6.62"/><rect x="20" y="220.68" width="66.96" height="36.89" rx="6.62" ry="6.62"/><rect x="116.96" y="20" width="66.96" height="36.89" rx="6.62" ry="6.62"/><rect x="213.92" y="20" width="66.96" height="36.89" rx="6.62" ry="6.62"/><rect x="310.88" y="20" width="66.96" height="36.89" rx="6.62" ry="6.62"/></g></g></svg>